<svg width="512" height="512" viewBox="0 0 512 512" xmlns="http://www.w3.org/2000/svg">
  <defs>
    <linearGradient id="bg" x1="0%" y1="0%" x2="100%" y2="100%">
      <stop offset="0%" style="stop-color:#4A90E2;stop-opacity:1" />
      <stop offset="100%" style="stop-color:#357ABD;stop-opacity:1" />
    </linearGradient>
  </defs>

  <!-- Background with rounded corners -->
  <rect width="512" height="512" rx="100" ry="100" fill="url(#bg)"/>

  <!-- Rolodex cards -->
  <g transform="translate(76, 140)">
    <!-- Card shadows -->
    <rect x="4" y="4" width="300" height="40" fill="rgba(0,0,0,0.2)" rx="4"/>
    <rect x="8" y="24" width="300" height="40" fill="rgba(0,0,0,0.2)" rx="4"/>
    <rect x="12" y="44" width="300" height="40" fill="rgba(0,0,0,0.2)" rx="4"/>
    <rect x="16" y="64" width="300" height="40" fill="rgba(0,0,0,0.2)" rx="4"/>
    <rect x="20" y="84" width="300" height="40" fill="rgba(0,0,0,0.2)" rx="4"/>

    <!-- Cards -->
    <rect x="0" y="0" width="300" height="40" fill="white" rx="4"/>
    <rect x="4" y="20" width="300" height="40" fill="white" rx="4"/>
    <rect x="8" y="40" width="300" height="40" fill="white" rx="4"/>
    <rect x="12" y="60" width="300" height="40" fill="white" rx="4"/>
    <rect x="16" y="80" width="300" height="40" fill="white" rx="4"/>

    <!-- Card lines -->
    <g stroke="#E0E0E0" stroke-width="1.5" opacity="0.6">
      <!-- First card -->
      <line x1="20" y1="12" x2="280" y2="12"/>
      <line x1="20" y1="20" x2="280" y2="20"/>
      <line x1="20" y1="28" x2="200" y2="28"/>

      <!-- Second card -->
      <line x1="24" y1="32" x2="284" y2="32"/>
      <line x1="24" y1="40" x2="284" y2="40"/>
      <line x1="24" y1="48" x2="204" y2="48"/>

      <!-- Third card -->
      <line x1="28" y1="52" x2="288" y2="52"/>
      <line x1="28" y1="60" x2="288" y2="60"/>
      <line x1="28" y1="68" x2="208" y2="68"/>
    </g>
  </g>

  <!-- Add a subtle highlight -->
  <ellipse cx="200" cy="180" rx="80" ry="40" fill="rgba(255,255,255,0.1)"/>
</svg>