<svg viewBox="0 0 200 240" xmlns="http://www.w3.org/2000/svg">
  <!-- Notepad back cover -->
  <rect x="20" y="20" width="160" height="200" fill="#000000" rx="8"/>
  
  <!-- Paper -->
  <rect x="30" y="40" width="140" height="170" fill="#FFFFFF" rx="4"/>
  
  <!-- Spiral binding holes -->
  <rect x="20" y="20" width="160" height="25" fill="#000000" rx="8"/>
  
  <!-- Simple spiral rings -->
  <g fill="#000000">
    <circle cx="45" cy="32" r="4"/>
    <circle cx="65" cy="32" r="4"/>
    <circle cx="85" cy="32" r="4"/>
    <circle cx="105" cy="32" r="4"/>
    <circle cx="125" cy="32" r="4"/>
    <circle cx="145" cy="32" r="4"/>
    <circle cx="165" cy="32" r="4"/>
  </g>
  
  <!-- Inner holes -->
  <g fill="#FFFFFF">
    <circle cx="45" cy="32" r="2"/>
    <circle cx="65" cy="32" r="2"/>
    <circle cx="85" cy="32" r="2"/>
    <circle cx="105" cy="32" r="2"/>
    <circle cx="125" cy="32" r="2"/>
    <circle cx="145" cy="32" r="2"/>
    <circle cx="165" cy="32" r="2"/>
  </g>
  
  <!-- Margin line -->
  <line x1="55" y1="50" x2="55" y2="200" stroke="#000000" stroke-width="2"/>
  
  <!-- Horizontal lines -->
  <g stroke="#000000" stroke-width="1.5">
    <line x1="35" y1="70" x2="165" y2="70"/>
    <line x1="35" y1="90" x2="165" y2="90"/>
    <line x1="35" y1="110" x2="165" y2="110"/>
    <line x1="35" y1="130" x2="165" y2="130"/>
    <line x1="35" y1="150" x2="165" y2="150"/>
    <line x1="35" y1="170" x2="165" y2="170"/>
    <line x1="35" y1="190" x2="165" y2="190"/>
  </g>
</svg>